<?xml version="1.0" encoding="UTF-8" standalone="no"?>
<svg
   width="43.961899mm"
   height="43.970436mm"
   viewBox="0 0 43.961899 43.970436"
   version="1.1"
   id="svg4842"
   xml:space="preserve"
   inkscape:version="1.3.2 (091e20ef0f, 2023-11-25, custom)"
   sodipodi:docname="loongarchlinux-3.svg"
   xmlns:inkscape="http://www.inkscape.org/namespaces/inkscape"
   xmlns:sodipodi="http://sodipodi.sourceforge.net/DTD/sodipodi-0.dtd"
   xmlns:xlink="http://www.w3.org/1999/xlink"
   xmlns="http://www.w3.org/2000/svg"
   xmlns:svg="http://www.w3.org/2000/svg"><sodipodi:namedview
   id="namedview1"
   pagecolor="#ffffff"
   bordercolor="#000000"
   borderopacity="0.25"
   inkscape:showpageshadow="2"
   inkscape:pageopacity="0.0"
   inkscape:pagecheckerboard="0"
   inkscape:deskcolor="#d1d1d1"
   inkscape:document-units="mm"
   inkscape:zoom="2.3270976"
   inkscape:cx="208.41412"
   inkscape:cy="114.30548"
   inkscape:window-width="1536"
   inkscape:window-height="795"
   inkscape:window-x="0"
   inkscape:window-y="0"
   inkscape:window-maximized="1"
   inkscape:current-layer="layer1" />
  <defs
   id="defs4839">
    <linearGradient
   x1="112.49854"
   y1="6.1372099"
   x2="112.49853"
   y2="129.3468"
   id="path1082_2_"
   gradientUnits="userSpaceOnUse"
   gradientTransform="translate(287,-83)">
      <stop
   id="stop193"
   style="stop-color:#ffffff;stop-opacity:0"
   offset="0" />
      <stop
   id="stop195"
   style="stop-color:#ffffff;stop-opacity:0.27450982"
   offset="1" />
    </linearGradient>
    <linearGradient
   x1="541.33502"
   y1="104.50665"
   x2="606.91248"
   y2="303.14029"
   id="linearGradient2544"
   xlink:href="#path1082_2_"
   gradientUnits="userSpaceOnUse"
   gradientTransform="matrix(-0.3937741,0,0,0.393752,357.51969,122.00151)" />
    <linearGradient
   id="linearGradient3388">
      <stop
   id="stop3390"
   style="stop-color:#000000;stop-opacity:0"
   offset="0" />
      <stop
   id="stop3392"
   style="stop-color:#000000;stop-opacity:0.37113401"
   offset="1" />
    </linearGradient>
    <linearGradient
   x1="490.72305"
   y1="237.72447"
   x2="490.72305"
   y2="183.9644"
   id="linearGradient4416"
   xlink:href="#linearGradient3388"
   gradientUnits="userSpaceOnUse"
   gradientTransform="matrix(0.749107,0,0,0.749107,-35.459862,91.44108)" />
  </defs>
  <g
   inkscape:label="Layer 1"
   inkscape:groupmode="layer"
   id="layer1"
   transform="translate(-937.51911,15.090119)">
    
    
  <path
   d="m 959.49606,-15.090119 c -1.95708,4.79826 -3.13751,7.93688 -5.31647,12.59251 1.33598,1.41614 2.97583,3.06529 5.63893,4.92787 -2.8631,-1.17815 -4.81608,-2.36099 -6.27558,-3.58842 -2.78866,5.81896 -7.15768,14.10781 -16.02383,30.038477 6.9685,-4.02303 12.37035,-6.503277 17.40462,-7.449667 -0.21617,-0.92976 -0.33907,-1.93548 -0.33073,-2.98484 l 0.008,-0.22324 c 0.11058,-4.46453 2.43302,-7.89775 5.18418,-7.66465 2.75116,0.23311 4.88961,4.04348 4.77904,8.50801 -0.0208,0.84009 -0.11556,1.64824 -0.28112,2.39779 4.97961,0.9741 10.3237,3.447987 17.19791,7.416597 -1.35546,-2.4955 -2.56532,-4.745007 -3.7207,-6.887427 -1.81991,-1.41055 -3.71816,-3.24639 -7.59023,-5.23379 2.66144,0.69155 4.567,1.48942 6.05234,2.38125 -11.74704,-21.87095 -12.6983,-24.77715 -16.72663,-34.23047 z"
   id="path2518-6-2-2-0"
   style="fill:#1793d1;fill-opacity:1;fill-rule:evenodd;stroke:none;stroke-width:0.264583"
   inkscape:export-filename="loongarchlinux_loongtxture_bule_red.png"
   inkscape:export-xdpi="96"
   inkscape:export-ydpi="96" /><path
   id="path606-7-6"
   style="display:inline;mix-blend-mode:normal;fill:#e60013;fill-opacity:1;stroke:none;stroke-width:0.0378005"
   d="m 955.87147,-4.547611 c 0.30397,1.801904 0.97195,1.910728 1.62987,2.819983 -0.57067,0.157413 -1.24536,0.385534 -1.81746,0.748275 0.74482,0.721251 1.59028,1.483227 2.63498,2.298051 0.15542,-0.06957 0.32994,-0.09617 0.51677,-0.06925 0.0516,-0.1767 -0.0797,-0.484763 -0.11266,-0.661975 0.3017,0.876228 0.57453,1.140843 1.12035,1.767851 l -0.24701,-0.08578 c 0.076,0.05399 0.14449,0.10636 0.2222,0.160714 -0.28387,-0.116813 -0.55216,-0.23394 -0.81855,-0.350883 0.46841,1.947825 1.79085,1.252925 2.50682,1.693953 0.68923,0.488602 0.57723,1.628614 0.57723,2.454631 l 0.67903,-0.126608 c -0.0587,0.07048 -0.14448,0.259749 -0.20671,0.392741 0.21187,0.0677 0.55461,-0.005 0.64802,-0.07131 0.30288,-0.214624 0.47396,-0.792466 0.47491,-1.205095 l -0.3731,0.126091 V 4.96499 l -0.30593,0.08423 -0.40566,-1.178222 -0.0982,-0.926042 -0.31058,-0.505396 c 0.25199,0.137498 0.34959,0.39957 0.54932,0.607715 0.11744,0.122166 0.27445,0.166744 0.40101,0.272852 0.24016,0.201401 0.41963,0.515216 0.52762,0.845426 0.45647,1.52206 0.2022,2.877367 1.67896,2.904216 -0.85581,-0.522829 -1.1446,-1.608976 -0.96996,-2.904216 0.0222,-0.189243 0.0235,-0.726226 0.092,-0.84646 0.49516,-0.05411 1.17449,0.886446 1.1989,0.908472 0.0597,0.01551 0.21427,-0.03816 0.32349,-0.146244 l -0.20361,0.757576 c 0.26536,-0.02597 0.46513,-0.167021 0.71314,-0.230994 0.0984,-0.02527 0.11469,0.06416 0.25942,0.135393 0.33221,-0.441552 0.45049,-1.421094 0.22789,-1.743563 -0.44464,-0.318983 -0.99268,-0.484986 -1.36994,-0.834058 -0.65689,-0.620816 -0.93434,-1.647191 -1.73116,-2.069124 -0.42449,-0.224737 -0.85172,-0.1217 -1.29037,-0.182418 0.0817,-0.05302 0.27274,-0.0781 0.42789,-0.211873 -0.55416,-0.991013 -2.38381,-1.695938 -3.38119,-1.86862 -1.77321,-0.05457 -2.69409,-1.781409 -3.76773,-2.38125 z m -1.04542,4.361491 c -0.15855,0.226754 -0.2805,0.481871 -0.34623,0.773596 0.1691,-0.01482 0.33791,-0.02986 0.50695,-0.04444 -0.85096,0.303987 -1.50061,1.825 -1.29398,2.901632 0.20138,-0.548 0.49156,-1.031071 0.78703,-1.383895 -0.58896,1.156217 -0.85016,2.50742 -0.61081,3.788399 l 0.54312,-0.46302 c -0.0566,0.443133 0.41249,2.648874 0.49919,2.669604 0.19566,-0.596601 0.49912,-0.758915 0.75654,-1.027844 -0.0507,0.54761 0.15282,2.667523 0.63356,2.891813 0.20175,-0.800731 0.72374,-1.355555 1.30173,-1.502751 -0.13048,0.509332 -0.3979,2.232365 -0.005,2.492355 1.88758,-1.239678 5.98456,0.695648 6.89415,1.8557 0.63023,0.732658 0.94539,2.694443 -0.062,4.104143 0.1025,0.704869 0.15258,1.44008 0.13384,2.196765 -0.0179,0.72343 -0.10127,1.415256 -0.22686,2.074292 1.75746,-0.561336 4.02434,-2.880175 4.2907,-4.622457 l 0.44545,0.70435 c 0.17636,-1.051851 0.23103,-2.572398 0.094,-3.323312 l 0.7953,0.331763 c -0.50067,-1.451186 -1.47316,-2.584749 -2.04794,-3.708818 l 0.89865,-0.47594 c -3.37218,-2.237497 -5.47744,-2.934 -7.67963,-3.547587 -3.54995,-1.58777 -3.91305,-3.991005 -3.17655,-4.896342 -1.22894,-0.590749 -2.2558,-1.18528 -3.13108,-1.788004 z m 8.9762,1.085722 -0.16485,0.208772 c -0.025,-0.145119 0.0857,-0.213193 0.16485,-0.208772 z m 0.15761,0.0987 c 0.12051,0.05303 -0.13757,0.224541 -0.14469,0.285254 l 0.0475,0.05943 c 0.12706,-0.09895 0.22736,-0.255659 0.25838,-0.172599 -0.0916,0.233428 -0.24246,0.348515 -0.33589,0.176217 -0.0649,-0.11959 -0.0911,-0.201881 0.17466,-0.348299 z m 0.28681,0.297139 c -0.007,0.06614 0.0103,0.248535 -0.18087,0.251664 z m 2.01228,1.775602 c 0.30876,0.217797 0.51658,0.238035 0.47284,0.56224 z m -13.79193,10.393681 0.26562,1.30638 c -2.44764,-0.957297 -5.15319,0.677548 -6.88537,1.759066 2.07972,-0.601847 4.92093,-1.277911 6.81509,-0.03307 l -0.98702,0.20929 c 0.86183,0.155796 1.86613,0.559617 2.95124,1.054199 0.0434,-0.722686 0.14261,-1.415511 0.29456,-2.065507 -1.19405,-0.74031 -2.11963,-1.518773 -2.45412,-2.230355 z" /><g
   inkscape:label="Layer 1"
   id="layer1-3"
   transform="translate(202.90667,-16.855041)"
   inkscape:export-filename="loongarchlinux_loongtxture_red.png"
   inkscape:export-xdpi="96"
   inkscape:export-ydpi="96">
    <path
   d="m 817.41482,3.16613 c -1.95708,4.79826 -3.13751,7.93688 -5.31647,12.59251 1.33598,1.41614 2.97583,3.06529 5.63893,4.92787 -2.8631,-1.17815 -4.81608,-2.36099 -6.27558,-3.58842 -2.78866,5.81896 -7.15768,14.10781 -16.02383,30.03848 6.9685,-4.02303 12.37035,-6.50328 17.40462,-7.44967 -0.21617,-0.92976 -0.33907,-1.93548 -0.33073,-2.98484 l 0.008,-0.22324 c 0.11058,-4.46453 2.43302,-7.89775 5.18418,-7.66465 2.75116,0.23311 4.88961,4.04348 4.77904,8.50801 -0.0208,0.84009 -0.11556,1.64824 -0.28112,2.39779 4.97961,0.9741 10.3237,3.44799 17.19791,7.4166 -1.35546,-2.4955 -2.56532,-4.74501 -3.7207,-6.88743 -1.81991,-1.41055 -3.71816,-3.24639 -7.59023,-5.23379 2.66144,0.69155 4.567,1.48942 6.05234,2.38125 C 822.39414,15.52565 821.44288,12.61945 817.41455,3.16613 Z"
   id="path2518-6"
   style="display:inline;mix-blend-mode:normal;fill:#ee1c25;fill-opacity:1;fill-rule:evenodd;stroke:none;stroke-width:0.264583" />
    <path
   id="path606-7"
   style="display:inline;mix-blend-mode:normal;fill:#f78b8f;fill-opacity:1;stroke:none;stroke-width:0.0378005"
   d="m 813.79024,13.708639 c 0.30397,1.801904 0.97195,1.910728 1.62987,2.819983 -0.57067,0.157413 -1.24536,0.385534 -1.81746,0.748275 0.74482,0.721251 1.59028,1.483227 2.63498,2.298051 0.15542,-0.06957 0.32994,-0.09617 0.51677,-0.06925 0.0516,-0.1767 -0.0797,-0.484763 -0.11266,-0.661975 0.3017,0.876228 0.57453,1.140843 1.12035,1.767851 l -0.24701,-0.08578 c 0.076,0.05399 0.14449,0.10636 0.2222,0.160714 -0.28387,-0.116813 -0.55216,-0.23394 -0.81855,-0.350883 0.46841,1.947825 1.79085,1.252925 2.50682,1.693953 0.68923,0.488602 0.57723,1.628614 0.57723,2.454631 l 0.67903,-0.126608 c -0.0587,0.07048 -0.14448,0.259749 -0.20671,0.392741 0.21187,0.0677 0.55461,-0.005 0.64802,-0.07131 0.30288,-0.214624 0.47396,-0.792466 0.47491,-1.205095 l -0.3731,0.126091 V 23.22124 l -0.30593,0.08423 -0.40566,-1.178222 -0.0982,-0.926042 -0.31058,-0.505396 c 0.25199,0.137498 0.34959,0.39957 0.54932,0.607715 0.11744,0.122166 0.27445,0.166744 0.40101,0.272852 0.24016,0.201401 0.41963,0.515216 0.52762,0.845426 0.45647,1.52206 0.2022,2.877367 1.67896,2.904216 -0.85581,-0.522829 -1.1446,-1.608976 -0.96996,-2.904216 0.0222,-0.189243 0.0235,-0.726226 0.092,-0.84646 0.49516,-0.05411 1.17449,0.886446 1.1989,0.908472 0.0597,0.01551 0.21427,-0.03816 0.32349,-0.146244 l -0.20361,0.757576 c 0.26536,-0.02597 0.46513,-0.167021 0.71314,-0.230994 0.0984,-0.02527 0.11469,0.06416 0.25942,0.135393 0.33221,-0.441552 0.45049,-1.421094 0.22789,-1.743563 -0.44464,-0.318983 -0.99268,-0.484986 -1.36994,-0.834058 -0.65689,-0.620816 -0.93434,-1.647191 -1.73116,-2.069124 -0.42449,-0.224737 -0.85172,-0.1217 -1.29037,-0.182418 0.0817,-0.05302 0.27274,-0.0781 0.42789,-0.211873 -0.55416,-0.991013 -2.38381,-1.695938 -3.38119,-1.86862 -1.77321,-0.05457 -2.69409,-1.781409 -3.76773,-2.38125 z m -1.04542,4.361491 c -0.15855,0.226754 -0.2805,0.481871 -0.34623,0.773596 0.1691,-0.01482 0.33791,-0.02986 0.50695,-0.04444 -0.85096,0.303987 -1.50061,1.825 -1.29398,2.901632 0.20138,-0.548 0.49156,-1.031071 0.78703,-1.383895 -0.58896,1.156217 -0.85016,2.50742 -0.61081,3.788399 l 0.54312,-0.46302 c -0.0566,0.443133 0.41249,2.648874 0.49919,2.669604 0.19566,-0.596601 0.49912,-0.758915 0.75654,-1.027844 -0.0507,0.54761 0.15282,2.667523 0.63356,2.891813 0.20175,-0.800731 0.72374,-1.355555 1.30173,-1.502751 -0.13048,0.509332 -0.3979,2.232365 -0.005,2.492355 1.88758,-1.239678 5.98456,0.695648 6.89415,1.8557 0.63023,0.732658 0.94539,2.694443 -0.062,4.104143 0.1025,0.704869 0.15258,1.44008 0.13384,2.196765 -0.0179,0.72343 -0.10127,1.415256 -0.22686,2.074292 1.75746,-0.561336 4.02434,-2.880175 4.2907,-4.622457 l 0.44545,0.70435 c 0.17636,-1.051851 0.23103,-2.572398 0.094,-3.323312 l 0.7953,0.331763 c -0.50067,-1.451186 -1.47316,-2.584749 -2.04794,-3.708818 l 0.89865,-0.47594 c -3.37218,-2.237497 -5.47744,-2.934 -7.67963,-3.547587 -3.54995,-1.58777 -3.91305,-3.991005 -3.17655,-4.896342 -1.22894,-0.590749 -2.2558,-1.18528 -3.13108,-1.788004 z m 8.9762,1.085722 -0.16485,0.208772 c -0.025,-0.145119 0.0857,-0.213193 0.16485,-0.208772 z m 0.15761,0.0987 c 0.12051,0.05303 -0.13757,0.224541 -0.14469,0.285254 l 0.0475,0.05943 c 0.12706,-0.09895 0.22736,-0.255659 0.25838,-0.172599 -0.0916,0.233428 -0.24246,0.348515 -0.33589,0.176217 -0.0649,-0.11959 -0.0911,-0.201881 0.17466,-0.348299 z m 0.28681,0.297139 c -0.007,0.06614 0.0103,0.248535 -0.18087,0.251664 z m 2.01228,1.775602 c 0.30876,0.217797 0.51658,0.238035 0.47284,0.56224 z m -13.79193,10.393681 0.26562,1.30638 c -2.44764,-0.957297 -5.15319,0.677548 -6.88537,1.759066 2.07972,-0.601847 4.92093,-1.277911 6.81509,-0.03307 l -0.98702,0.20929 c 0.86183,0.155796 1.86613,0.559617 2.95124,1.054199 0.0434,-0.722686 0.14261,-1.415511 0.29456,-2.065507 -1.19405,-0.74031 -2.11963,-1.518773 -2.45412,-2.230355 z" />
  </g></g>
</svg>
